REM DIRINDEX 1\2\6,1\2\7,1\2\8,1\2\9,1\3\10,1\3\11,1\4\12,1\4\13,1\4\14,1\5\15,1\5\16,1\5\17
REM DIRNAME folder01,folder02,folder03,folder04,folder05,folder06,folder07,folder08,folder09,folder10,folder11,folder12,folder13,folder14,folder15,folder16,folder17
TITLE ""
FILE "1900_3_021 sec04_0331_0346.mp3" MP3
  TRACK 01 AUDIO
    TITLE "0:"
    INDEX 01 00:00:00
  TRACK 02 AUDIO
    TITLE "17:cjc020_6631"
    INDEX 01 00:00:19
  TRACK 03 AUDIO
    TITLE "0:"
    INDEX 01 00:01:38
  TRACK 04 AUDIO
    TITLE "16:cjc020_6632"
    INDEX 01 00:01:44
  TRACK 05 AUDIO
    TITLE "0:"
    INDEX 01 00:02:65
  TRACK 06 AUDIO
    TITLE "17:cjc020_6633"
    INDEX 01 00:03:51
  TRACK 07 AUDIO
    TITLE "0:"
    INDEX 01 00:04:62
  TRACK 08 AUDIO
    TITLE "16:cjc020_6634"
    INDEX 01 00:04:66
  TRACK 09 AUDIO
    TITLE "0:"
    INDEX 01 00:06:02
  TRACK 10 AUDIO
    TITLE "17:cjc020_6635"
    INDEX 01 00:06:59
  TRACK 11 AUDIO
    TITLE "0:"
    INDEX 01 00:08:11
  TRACK 12 AUDIO
    TITLE "16:cjc020_6636"
    INDEX 01 00:08:19
  TRACK 13 AUDIO
    TITLE "0:"
    INDEX 01 00:09:44
  TRACK 14 AUDIO
    TITLE "17:cjc020_6637"
    INDEX 01 00:10:27
  TRACK 15 AUDIO
    TITLE "0:"
    INDEX 01 00:12:56
  TRACK 16 AUDIO
    TITLE "16:cjc020_6638"
    INDEX 01 00:12:60
  TRACK 17 AUDIO
    TITLE "0:"
    INDEX 01 00:13:73
  TRACK 18 AUDIO
    TITLE "17:cjc020_6639"
    INDEX 01 00:14:60
  TRACK 19 AUDIO
    TITLE "0:"
    INDEX 01 00:15:60
  TRACK 20 AUDIO
    TITLE "16:cjc020_6640"
    INDEX 01 00:15:72
  TRACK 21 AUDIO
    TITLE "0:"
    INDEX 01 00:17:02
  TRACK 22 AUDIO
    TITLE "17:cjc020_6641"
    INDEX 01 00:17:59
  TRACK 23 AUDIO
    TITLE "0:"
    INDEX 01 00:19:05
  TRACK 24 AUDIO
    TITLE "16:cjc020_6642"
    INDEX 01 00:19:15
  TRACK 25 AUDIO
    TITLE "0:"
    INDEX 01 00:20:18
  TRACK 26 AUDIO
    TITLE "17:cjc020_6643"
    INDEX 01 00:21:04
  TRACK 27 AUDIO
    TITLE "0:"
    INDEX 01 00:21:74
  TRACK 28 AUDIO
    TITLE "16:cjc020_6644"
    INDEX 01 00:22:11
  TRACK 29 AUDIO
    TITLE "0:"
    INDEX 01 00:23:08
  TRACK 30 AUDIO
    TITLE "17:cjc020_6645"
    INDEX 01 00:23:67
  TRACK 31 AUDIO
    TITLE "0:"
    INDEX 01 00:25:17
  TRACK 32 AUDIO
    TITLE "16:cjc020_6646"
    INDEX 01 00:25:25
  TRACK 33 AUDIO
    TITLE "0:"
    INDEX 01 00:26:38
  TRACK 34 AUDIO
    TITLE "17:cjc020_6647"
    INDEX 01 00:27:20
  TRACK 35 AUDIO
    TITLE "0:"
    INDEX 01 00:29:03
  TRACK 36 AUDIO
    TITLE "16:cjc020_6648"
    INDEX 01 00:29:07
  TRACK 37 AUDIO
    TITLE "0:"
    INDEX 01 00:30:20
  TRACK 38 AUDIO
    TITLE "17:cjc020_6649"
    INDEX 01 00:31:08
  TRACK 39 AUDIO
    TITLE "0:"
    INDEX 01 00:32:35
  TRACK 40 AUDIO
    TITLE "16:cjc020_6650"
    INDEX 01 00:32:39
  TRACK 41 AUDIO
    TITLE "0:"
    INDEX 01 00:33:68
  TRACK 42 AUDIO
    TITLE "17:cjc020_6651"
    INDEX 01 00:34:49
  TRACK 43 AUDIO
    TITLE "0:"
    INDEX 01 00:37:20
  TRACK 44 AUDIO
    TITLE "16:cjc020_6652"
    INDEX 01 00:37:26
  TRACK 45 AUDIO
    TITLE "0:"
    INDEX 01 00:38:73
  TRACK 46 AUDIO
    TITLE "17:cjc020_6653"
    INDEX 01 00:39:54
  TRACK 47 AUDIO
    TITLE "0:"
    INDEX 01 00:40:62
  TRACK 48 AUDIO
    TITLE "16:cjc020_6654"
    INDEX 01 00:40:68
  TRACK 49 AUDIO
    TITLE "0:"
    INDEX 01 00:42:21
  TRACK 50 AUDIO
    TITLE "17:cjc020_6655"
    INDEX 01 00:43:15
  TRACK 51 AUDIO
    TITLE "0:"
    INDEX 01 00:44:20
  TRACK 52 AUDIO
    TITLE "16:cjc020_6656"
    INDEX 01 00:44:22
  TRACK 53 AUDIO
    TITLE "0:"
    INDEX 01 00:45:53
  TRACK 54 AUDIO
    TITLE "17:cjc020_6657"
    INDEX 01 00:46:35
  TRACK 55 AUDIO
    TITLE "0:"
    INDEX 01 00:47:48
  TRACK 56 AUDIO
    TITLE "16:cjc020_6658"
    INDEX 01 00:47:54
  TRACK 57 AUDIO
    TITLE "0:"
    INDEX 01 00:49:02
  TRACK 58 AUDIO
    TITLE "17:cjc020_6659"
    INDEX 01 00:49:67
  TRACK 59 AUDIO
    TITLE "0:"
    INDEX 01 00:51:05
  TRACK 60 AUDIO
    TITLE "16:cjc020_6660"
    INDEX 01 00:51:15
  TRACK 61 AUDIO
    TITLE "0:"
    INDEX 01 00:52:26
  TRACK 62 AUDIO
    TITLE "17:cjc020_6661"
    INDEX 01 00:53:11
  TRACK 63 AUDIO
    TITLE "0:"
    INDEX 01 00:54:11
  TRACK 64 AUDIO
    TITLE "16:cjc020_6662"
    INDEX 01 00:54:17
  TRACK 65 AUDIO
    TITLE "0:"
    INDEX 01 00:55:51
